<svg width="700" height="220" viewBox="0 0 700 220" xmlns="http://www.w3.org/2000/svg">
  <rect x="0.5" y="0.5" width="699" height="219" rx="8" fill="#ffffff" stroke="#d0d7de" />
  <path d="M8 0.5 H692 A7.5 7.5 0 0 1 699.5 8 V46 H0.5 V8 A7.5 7.5 0 0 1 8 0.5 Z" fill="#f6f8fa" />
  <path d="M8 0.5 H692 A7.5 7.5 0 0 1 699.5 8 V8.5 H0.5 V8 A7.5 7.5 0 0 1 8 0.5 Z" fill="#0969da" />
  <line x1="0.5" y1="46" x2="699.5" y2="46" stroke="#d8dee4" />

  <text x="24" y="29" fill="#0969da" font-family="Segoe UI, Arial, sans-serif" font-size="20" font-weight="700">
    EMGANet Impact
  </text>
  <text x="24" y="66" fill="#57606a" font-family="Segoe UI, Arial, sans-serif" font-size="12">
    OpenAlex + GitHub metrics
  </text>

  <g font-family="Segoe UI, Arial, sans-serif" font-size="15">
    <circle cx="30" cy="88" r="6" fill="#0969da" fill-opacity="0.12" stroke="#0969da" />
    <text x="48" y="93" fill="#24292f" font-weight="600">Total Citations:</text>
    <text x="488" y="93" fill="#24292f" font-weight="700" text-anchor="end">26</text>

    <line x1="24" y1="107" x2="520" y2="107" stroke="#d8dee4" />
    <circle cx="30" cy="124" r="6" fill="#1f883d" fill-opacity="0.12" stroke="#1f883d" />
    <text x="48" y="129" fill="#24292f" font-weight="600">FWCI:</text>
    <text x="488" y="129" fill="#1f883d" font-weight="700" text-anchor="end">45.73</text>

    <line x1="24" y1="143" x2="520" y2="143" stroke="#d8dee4" />
    <path d="M30 151.5 L32.1 156.1 L37 156.7 L33.4 160 L34.4 164.8 L30 162.3 L25.6 164.8 L26.6 160 L23 156.7 L27.9 156.1 Z" fill="#0969da" fill-opacity="0.14" stroke="#0969da" stroke-linejoin="round" />
    <text x="48" y="165" fill="#24292f" font-weight="600">Total Stars Earned:</text>
    <text x="488" y="165" fill="#0969da" font-weight="700" text-anchor="end">28</text>

    <line x1="24" y1="179" x2="520" y2="179" stroke="#d8dee4" />
    <circle cx="30" cy="195" r="5.5" fill="#8250df" fill-opacity="0.12" stroke="#8250df" />
    <path d="M41 195 H30" stroke="#8250df" stroke-width="2" stroke-linecap="round" />
    <text x="48" y="200" fill="#24292f" font-weight="600">Total Commits:</text>
    <text x="488" y="200" fill="#8250df" font-weight="700" text-anchor="end">20</text>
  </g>

  <circle cx="604" cy="126" r="48" fill="#f6f8fa" stroke="#d0d7de" />
  <circle cx="604" cy="126" r="35" fill="#ffffff" stroke="#0969da" stroke-width="3" />
  <text x="604" y="122" fill="#0969da" font-family="Segoe UI, Arial, sans-serif" font-size="18" font-weight="800" text-anchor="middle">
    EM
  </text>
  <text x="604" y="141" fill="#57606a" font-family="Segoe UI, Arial, sans-serif" font-size="10" font-weight="700" text-anchor="middle">
    IMPACT
  </text>

  <rect x="548" y="27" width="112" height="24" rx="12" fill="#ddf4ff" stroke="#54aeff" />
  <text x="604" y="43" fill="#0969da" font-family="Segoe UI, Arial, sans-serif" font-size="11" font-weight="700" text-anchor="middle">
    LIVE UPDATE
  </text>
</svg>
